<svg id="visual" viewBox="0 0 960 540" width="960" height="540" xmlns="http://www.w3.org/2000/svg" xmlns:xlink="http://www.w3.org/1999/xlink" version="1.1"><rect x="0" y="0" width="960" height="540" fill="#de9656"></rect><defs><linearGradient id="grad1_0" x1="43.8%" y1="0%" x2="100%" y2="100%"><stop offset="14.444444444444446%" stop-color="#9a3b3b" stop-opacity="1"></stop><stop offset="85.55555555555554%" stop-color="#9a3b3b" stop-opacity="1"></stop></linearGradient></defs><defs><linearGradient id="grad1_1" x1="43.8%" y1="0%" x2="100%" y2="100%"><stop offset="14.444444444444446%" stop-color="#9a3b3b" stop-opacity="1"></stop><stop offset="85.55555555555554%" stop-color="#bf6746" stop-opacity="1"></stop></linearGradient></defs><defs><linearGradient id="grad1_2" x1="43.8%" y1="0%" x2="100%" y2="100%"><stop offset="14.444444444444446%" stop-color="#de9656" stop-opacity="1"></stop><stop offset="85.55555555555554%" stop-color="#bf6746" stop-opacity="1"></stop></linearGradient></defs><defs><linearGradient id="grad2_0" x1="0%" y1="0%" x2="56.3%" y2="100%"><stop offset="14.444444444444446%" stop-color="#9a3b3b" stop-opacity="1"></stop><stop offset="85.55555555555554%" stop-color="#9a3b3b" stop-opacity="1"></stop></linearGradient></defs><defs><linearGradient id="grad2_1" x1="0%" y1="0%" x2="56.3%" y2="100%"><stop offset="14.444444444444446%" stop-color="#bf6746" stop-opacity="1"></stop><stop offset="85.55555555555554%" stop-color="#9a3b3b" stop-opacity="1"></stop></linearGradient></defs><defs><linearGradient id="grad2_2" x1="0%" y1="0%" x2="56.3%" y2="100%"><stop offset="14.444444444444446%" stop-color="#bf6746" stop-opacity="1"></stop><stop offset="85.55555555555554%" stop-color="#de9656" stop-opacity="1"></stop></linearGradient></defs><g transform="translate(960, 0)"><path d="M0 437C-34.6 403.2 -69.2 369.3 -119 366.2C-168.8 363 -233.7 390.4 -269.8 371.3C-305.9 352.2 -313.1 286.6 -328.5 238.6C-343.9 190.7 -367.5 160.4 -380.4 123.6C-393.4 86.8 -395.7 43.4 -398 0L0 0Z" fill="#d07e4d"></path><path d="M0 291.3C-23.1 268.8 -46.1 246.2 -79.3 244.1C-112.5 242 -155.8 260.3 -179.9 247.6C-203.9 234.8 -208.7 191.1 -219 159.1C-229.2 127.1 -245 107 -253.6 82.4C-262.3 57.9 -263.8 28.9 -265.3 0L0 0Z" fill="#ad5140"></path><path d="M0 145.7C-11.5 134.4 -23.1 123.1 -39.7 122.1C-56.3 121 -77.9 130.1 -89.9 123.8C-102 117.4 -104.4 95.5 -109.5 79.5C-114.6 63.6 -122.5 53.5 -126.8 41.2C-131.1 28.9 -131.9 14.5 -132.7 0L0 0Z" fill="#9a3b3b"></path></g><g transform="translate(0, 540)"><path d="M0 -459C42.4 -434.2 84.9 -409.5 127.9 -393.7C171 -378 214.7 -371.4 253.3 -348.7C292 -326 325.5 -287.3 336.6 -244.5C347.6 -201.7 336.2 -154.8 349 -113.4C361.9 -72 398.9 -36 436 0L0 0Z" fill="#d07e4d"></path><path d="M0 -306C28.3 -289.5 56.6 -273 85.3 -262.5C114 -252 143.1 -247.6 168.9 -232.5C194.6 -217.3 217 -191.5 224.4 -163C231.7 -134.5 224.1 -103.2 232.7 -75.6C241.2 -48 266 -24 290.7 0L0 0Z" fill="#ad5140"></path><path d="M0 -153C14.1 -144.7 28.3 -136.5 42.6 -131.2C57 -126 71.6 -123.8 84.4 -116.2C97.3 -108.7 108.5 -95.8 112.2 -81.5C115.9 -67.2 112.1 -51.6 116.3 -37.8C120.6 -24 133 -12 145.3 0L0 0Z" fill="#9a3b3b"></path></g></svg>